<svg width="216" height="101" viewBox="0 0 216 101" fill="none" xmlns="http://www.w3.org/2000/svg">
<circle cx="48" cy="55.5" r="34.5" stroke="black"/>
<path d="M95.5 55C95.5 79.8279 74.2591 100 48 100C21.7409 100 0.5 79.8279 0.5 55C0.5 53.1596 0.616595 51.3452 0.843122 49.563C3.67363 27.2947 23.6882 10 48 10C72.3118 10 92.3264 27.2947 95.1569 49.563C95.3834 51.3452 95.5 53.1596 95.5 55Z" stroke="black"/>
<path d="M2 44C5.33333 30.5 17.5 4 47.5 4C77.5 4 90.3333 30.5 94 44" stroke="black"/>
<path d="M2 44.5C5.33333 29.9875 17.5 1.5 47.5 1.5C77.5 1.5 90.3333 29.9875 94 44.5" stroke="black"/>
<path d="M117.25 33.7118C121.28 3.66748 152.373 -2.50362 166.192 7.31845C178.86 -2.50383 207.649 5.97861 213.407 33.7117C218.866 60.0006 186.729 89.1779 166.192 99C150.838 90.9112 113.436 62.1411 117.25 33.7118Z" stroke="black"/>
<path d="M116.511 34.5255C121.932 7.43006 151.962 6.64471 165.91 16.5191C178.696 6.64449 206.564 5.81321 214.148 34.5255C221.128 60.9495 186.639 89.1256 165.91 99.0001C150.412 90.8682 110.699 63.5681 116.511 34.5255Z" fill="white" stroke="black"/>
</svg>
